<?xml version="1.0" encoding="UTF-8" standalone="no"?>
<svg xmlns="http://www.w3.org/2000/svg" width="16" height="16" class="bi bi-grid" viewBox="0 0 16 16" version="1.1">
  <style>
    rect {
      fill: #1e1e2e;
    }
    path {
      fill: #cdd6f4;
    }
    @media(prefers-color-scheme: light) {
      rect {
        fill: #dce0e8;
      }
      path {
        fill: #4c4f69;
      }
    }
  </style>
  <rect id="rect1" width="14" height="14" x="1" y="1" ry="1.4082549"/>
  <path d="M 2,3.285714 A 1.285714,1.285714 0 0 1 3.285714,2 h 2.5714281 a 1.285714,1.285714 0 0 1 1.285716,1.285714 v 2.5714281 a 1.285714,1.285714 0 0 1 -1.285716,1.285716 H 3.285714 A 1.285714,1.285714 0 0 1 2,5.8571421 Z M 3.285714,2.8571421 A 0.4285714,0.4285714 0 0 0 2.8571421,3.285714 V 5.8571421 A 0.4285714,0.4285714 0 0 0 3.285714,6.285714 H 5.8571421 A 0.4285714,0.4285714 0 0 0 6.285714,5.8571421 V 3.285714 A 0.4285714,0.4285714 0 0 0 5.8571421,2.8571421 Z M 8.8571419,3.285714 A 1.285714,1.285714 0 0 1 10.142858,2 H 12.71428 A 1.285714,1.285714 0 0 1 14,3.285714 v 2.5714281 a 1.285714,1.285714 0 0 1 -1.28572,1.285716 H 10.142858 A 1.285714,1.285714 0 0 1 8.8571419,5.8571421 Z M 10.142858,2.8571421 A 0.4285714,0.4285714 0 0 0 9.714286,3.285714 V 5.8571421 A 0.4285714,0.4285714 0 0 0 10.142858,6.285714 H 12.71428 A 0.4285714,0.4285714 0 0 0 13.14286,5.8571421 V 3.285714 A 0.4285714,0.4285714 0 0 0 12.71428,2.8571421 Z M 2,10.142858 A 1.285714,1.285714 0 0 1 3.285714,8.8571419 h 2.5714281 a 1.285714,1.285714 0 0 1 1.285716,1.2857161 V 12.71428 A 1.285714,1.285714 0 0 1 5.8571421,14 H 3.285714 A 1.285714,1.285714 0 0 1 2,12.71428 Z M 3.285714,9.714286 A 0.4285714,0.4285714 0 0 0 2.8571421,10.142858 V 12.71428 A 0.4285714,0.4285714 0 0 0 3.285714,13.14286 H 5.8571421 A 0.4285714,0.4285714 0 0 0 6.285714,12.71428 V 10.142858 A 0.4285714,0.4285714 0 0 0 5.8571421,9.714286 Z m 5.5714279,0.428572 A 1.285714,1.285714 0 0 1 10.142858,8.8571419 H 12.71428 A 1.285714,1.285714 0 0 1 14,10.142858 V 12.71428 A 1.285714,1.285714 0 0 1 12.71428,14 H 10.142858 A 1.285714,1.285714 0 0 1 8.8571419,12.71428 Z M 10.142858,9.714286 a 0.4285714,0.4285714 0 0 0 -0.428572,0.428572 v 2.571422 a 0.4285714,0.4285714 0 0 0 0.428572,0.42858 h 2.571422 a 0.4285714,0.4285714 0 0 0 0.42858,-0.42858 V 10.142858 A 0.4285714,0.4285714 0 0 0 12.71428,9.714286 Z" id="path1" style="stroke-width:0.85714"/>
</svg>
