<svg xmlns="http://www.w3.org/2000/svg" width="18" height="18" viewBox="0 0 18 18" fill="none">
  <symbol id="google">
    <path fill="currentColor" d="M17.4881 7.37775C17.5931 7.98183 17.6454 8.59387 17.6445 9.207C17.6445 11.9452 16.6658 14.2605 14.9625 15.8276H14.9648C13.4753 17.2035 11.4278 18 9 18C6.61305 18 4.32387 17.0518 2.63604 15.364C0.948212 13.6761 0 11.3869 0 9C0 6.61305 0.948212 4.32386 2.63604 2.63604C4.32387 0.94821 6.61305 -1.22038e-06 9 -1.22038e-06C11.2342 -0.0261669 13.3918 0.813186 15.021 2.34225L12.4515 4.91175C11.5227 4.02635 10.2831 3.54149 9 3.56175C6.65213 3.56175 4.6575 5.14575 3.9465 7.27875C3.56952 8.39644 3.56952 9.60693 3.9465 10.7246H3.94988C4.66425 12.8542 6.6555 14.4382 9.00338 14.4382C10.2161 14.4382 11.2579 14.1277 12.0656 13.5787H12.0623C12.5313 13.268 12.9325 12.8655 13.2416 12.3955C13.5508 11.9254 13.7616 11.3976 13.8611 10.8439H9V7.37887L17.4881 7.37775Z"/>
  </symbol>

  <symbol id="duck">
    <path fill="currentColor" d="M9 0C4.02975 0 0 4.02975 0 9C0 13.9703 4.02975 18 9 18C13.9703 18 18 13.9703 18 9C18 4.02975 13.9703 0 9 0ZM9 17.25C4.44375 17.25 0.75 13.5555 0.75 9C0.75 4.4445 4.4445 0.75 9 0.75C13.5555 0.75 17.25 4.44375 17.25 9C17.25 13.5563 13.5563 17.25 9 17.25ZM16.6643 9C16.6643 12.6038 14.1765 15.6248 10.8248 16.4438C10.6223 16.053 10.4273 15.681 10.263 15.3653C10.7468 15.552 11.7105 15.9037 11.919 15.8265C12.201 15.7185 12.1305 13.4648 11.814 13.3928C11.5605 13.3365 10.59 14.0205 10.2083 14.2995L10.2338 14.4165C10.2923 14.7143 10.3418 15.1613 10.2563 15.3518C10.2555 15.3548 10.2547 15.3593 10.2532 15.3615C10.2422 15.3875 10.2247 15.4103 10.2023 15.4275C9.98925 15.5685 9.3915 15.6405 9.075 15.5685C9.05869 15.5645 9.04266 15.5595 9.027 15.5535C8.5065 15.8505 7.5195 16.3853 7.3395 16.2818C7.09275 16.1408 7.05675 14.2747 7.09275 13.8157C7.119 13.4707 8.3325 14.0303 8.92425 14.325C9.05475 14.2028 9.37575 14.121 9.65925 14.0925C9.23175 13.0508 8.91675 11.8598 9.1095 11.0138C9.1095 11.0153 9.111 11.0153 9.111 11.0153C9.378 11.2013 11.1585 11.8028 12.0435 11.7855C12.9285 11.7675 14.379 11.2283 14.2208 10.7933C14.0618 10.3583 12.6195 11.1757 11.1143 11.0362C9.99975 10.9327 9.80325 10.4333 10.0493 10.0688C10.3598 9.6105 10.9253 10.1558 11.8575 9.87675C12.7913 9.5985 14.0978 9.1005 14.5815 8.829C15.702 8.20425 14.1128 7.94625 13.7378 8.11875C13.3823 8.28375 12.1455 8.5965 11.571 8.73375C11.892 7.59675 11.1187 5.622 10.2532 4.75875C9.97125 4.47675 9.54 4.29975 9.051 4.20675C8.8635 3.94875 8.5605 3.7035 8.13225 3.474C7.30432 3.04084 6.35847 2.88719 5.436 3.036L5.418 3.039L5.3925 3.042L5.3955 3.0435C5.2845 3.0645 5.21775 3.1035 5.12775 3.117C5.23875 3.129 5.6565 3.324 5.9205 3.4305C5.79 3.4815 5.6115 3.5115 5.4735 3.5685C5.42091 3.5759 5.36949 3.59002 5.3205 3.6105C5.19075 3.6705 5.09325 3.89175 5.0955 3.99675C5.7255 3.93225 6.657 3.97725 7.33875 4.18125C6.85575 4.24875 6.4125 4.37475 6.093 4.54275C6.081 4.54875 6.0705 4.55625 6.057 4.56375C6.0165 4.57875 5.9775 4.59525 5.943 4.61325C4.91775 5.15325 4.46475 6.417 4.73475 7.93125C4.977 9.29925 5.9835 13.9973 6.45225 16.2293C3.4725 15.1793 1.33575 12.3398 1.33575 9C1.33575 4.767 4.767 1.33575 9 1.33575C13.233 1.33575 16.6643 4.767 16.6643 9ZM6.82125 7.18575C6.67048 7.18575 6.52587 7.24565 6.41926 7.35226C6.31265 7.45887 6.25275 7.60347 6.25275 7.75425C6.25275 7.90503 6.31265 8.04963 6.41926 8.15624C6.52587 8.26285 6.67048 8.32275 6.82125 8.32275C6.97203 8.32275 7.11663 8.26285 7.22324 8.15624C7.32986 8.04963 7.38975 7.90503 7.38975 7.75425C7.38975 7.60347 7.32986 7.45887 7.22324 7.35226C7.11663 7.24565 6.97203 7.18575 6.82125 7.18575ZM10.6177 6.93C10.5522 6.92743 10.4867 6.93812 10.4254 6.96144C10.3641 6.98476 10.3081 7.02023 10.2607 7.06572C10.2134 7.1112 10.1758 7.16578 10.1501 7.22616C10.1244 7.28654 10.1111 7.3515 10.1111 7.41713C10.1111 7.48275 10.1244 7.54771 10.1501 7.60809C10.1758 7.66847 10.2134 7.72305 10.2607 7.76853C10.3081 7.81402 10.3641 7.84949 10.4254 7.87281C10.4867 7.89613 10.5522 7.90682 10.6177 7.90425C10.747 7.90425 10.871 7.85289 10.9625 7.76146C11.0539 7.67004 11.1053 7.54604 11.1053 7.41675C11.1053 7.28746 11.0539 7.16346 10.9625 7.07204C10.871 6.98061 10.747 6.93 10.6177 6.93ZM6.98475 6.1095C6.98475 6.1095 6.5565 5.9145 6.141 6.177C5.7255 6.438 5.7405 6.705 5.7405 6.705C5.7405 6.705 5.52 6.213 6.108 5.9715C6.6975 5.7315 6.9855 6.1095 6.9855 6.1095H6.98475ZM10.9117 6.0705C10.9117 6.0705 10.6043 5.895 10.3643 5.898C9.87375 5.904 9.741 6.12 9.741 6.12C9.741 6.12 9.8235 5.604 10.4498 5.7075C10.5505 5.72591 10.6452 5.76859 10.7257 5.83184C10.8062 5.89509 10.87 5.97701 10.9117 6.0705Z"/>
  </symbol>

  <symbol id="bing">
    <path fill="currentColor" d="M9.39376 5.67674C9.23273 5.69625 9.08368 5.77172 8.97264 5.88996C8.8616 6.00819 8.79563 6.16169 8.78626 6.32362C8.77613 6.46987 8.77951 6.48112 9.11138 7.33499C9.86513 9.27787 10.0485 9.74474 10.0789 9.80999C10.1543 9.96974 10.2589 10.1205 10.3905 10.2544C10.4906 10.3579 10.557 10.413 10.6684 10.4884C10.8664 10.62 10.9631 10.6571 11.7304 10.8832C12.4774 11.1049 12.8846 11.2511 13.2356 11.4255C13.6913 11.6516 14.0096 11.9092 14.2099 12.213C14.3539 12.4324 14.4821 12.825 14.5373 13.221C14.5598 13.3751 14.5598 13.716 14.5373 13.8555C14.4911 14.1592 14.3978 14.4124 14.2538 14.625C14.1784 14.7375 14.2043 14.7195 14.3156 14.5811C14.6284 14.1919 14.9479 13.5259 15.111 12.9217C15.4019 11.8455 15.3227 10.7027 14.8861 9.67688C14.4495 8.65105 13.6808 7.80171 12.7035 7.26524C12.3718 7.08847 12.0388 6.91409 11.7045 6.74212C11.5064 6.63707 11.3076 6.53319 11.1083 6.43049L10.7111 6.22349C10.5311 6.13124 10.4119 6.06824 10.323 6.02099C9.90901 5.80499 9.73463 5.71724 9.68401 5.70262C9.61265 5.6837 9.53949 5.67239 9.46576 5.66887L9.39376 5.67674Z"/>
    <path fill="currentColor" d="M10.296 12.9296C10.2444 12.9592 10.1938 12.9903 10.1441 13.023C9.57577 13.3717 9.0084 13.7219 8.442 14.0737C8.14146 14.2589 7.84146 14.4449 7.54199 14.6317C7.52849 14.643 6.88162 15.0446 6.5565 15.2426C6.30466 15.3943 6.02438 15.4927 5.733 15.5317C5.598 15.5509 5.34037 15.5509 5.20424 15.5317C4.84378 15.4847 4.50139 15.346 4.20975 15.129C4.05885 15.0073 3.92121 14.8701 3.79912 14.7195C3.60945 14.4666 3.47876 14.1745 3.41662 13.8645C3.40845 13.8187 3.39832 13.7733 3.38624 13.7284C3.38062 13.7216 3.39075 13.8319 3.411 13.9759C3.43125 14.1244 3.47512 14.3404 3.52125 14.526C3.7042 15.2349 4.05343 15.8899 4.53998 16.4369C5.02654 16.9839 5.63642 17.4071 6.31912 17.6715C6.723 17.8312 7.12912 17.9302 7.57237 17.9809C7.73774 17.9989 8.20912 18.0067 8.38237 17.9932C9.16727 17.937 9.92475 17.681 10.5829 17.2496L10.8472 17.082C10.9956 16.9899 11.1433 16.8969 11.2905 16.803L11.5807 16.6196L12.8902 15.7916C13.464 15.4316 13.6361 15.3045 13.9027 15.0435C14.0141 14.9344 14.1817 14.7487 14.1896 14.7251C14.1919 14.7195 14.2211 14.6734 14.256 14.6227C14.4059 14.3912 14.502 14.1291 14.5372 13.8555C14.5597 13.716 14.5597 13.3751 14.5372 13.2199C14.4969 12.926 14.4162 12.639 14.2976 12.3671C14.1289 12.0139 13.7689 11.6921 13.2536 11.4334C13.1548 11.3807 13.0521 11.3356 12.9465 11.2984C12.9397 11.2984 12.4594 11.5909 11.88 11.9509C11.4625 12.2083 11.0451 12.466 10.6279 12.7237L10.296 12.9296Z"/>
    <path fill="currentColor" d="M3.3795 13.707L3.41325 13.8521C3.51338 14.3044 3.68888 14.6317 3.99263 14.9355C4.18528 15.1309 4.41518 15.2856 4.66871 15.3905C4.92224 15.4955 5.19425 15.5485 5.46863 15.5464C5.87475 15.5464 6.22575 15.4451 6.58688 15.2235L7.11788 14.8972L7.5375 14.6385V6.00075C7.5375 4.27162 7.53413 3.2445 7.5285 3.16462C7.49701 2.66438 7.28281 2.19315 6.92663 1.8405C6.8175 1.7325 6.72413 1.6605 6.44625 1.46925C5.86581 1.06995 5.28569 0.670204 4.70588 0.269997C4.437 0.0866223 4.41563 0.0731223 4.33463 0.0449973C4.23844 0.00852639 4.13548 -0.00660329 4.03286 0.000655803C3.93025 0.00791489 3.83044 0.0373893 3.74034 0.0870382C3.65025 0.136687 3.57202 0.205324 3.51107 0.288197C3.45013 0.37107 3.40792 0.466199 3.38738 0.566997C3.37725 0.614247 3.37613 1.24537 3.37613 4.66875L3.3795 13.7081V13.707Z"/>
  </symbol>

  <symbol id="ask">
    <path fill="currentColor" d="m 10.993676,2.591182 c -0.239243,0.00176 -0.478549,0.011996 -0.71751,0.031044 C 9.7506299,2.6614363 9.228283,2.7358639 8.7127008,2.8449686 8.078704,2.9787715 7.4559294,3.1601739 6.8492711,3.3878545 6.5651548,3.4943485 6.290779,3.6102368 6.0211663,3.7332215 5.1579292,4.1232956 4.3443763,4.614807 3.5973884,5.1973451 3.4418196,5.3193363 3.2899758,5.4477634 3.1441427,5.5749204 3.059305,5.6506186 2.9718346,5.7263761 2.88958,5.8042596 2.6525712,6.024738 2.4270296,6.2570903 2.2139798,6.5008146 2.0550335,6.6841989 1.9051765,6.86953 1.7607341,7.0654313 1.2207002,7.7800738 0.83059452,8.5967285 0.61403796,9.4659264 0.39916385,10.332084 0.4466432,11.242594 0.75024451,12.08179 c 0.0252327,0.06537 0.0505431,0.129871 0.0795508,0.193251 0.0831349,0.188351 0.17989059,0.370372 0.28987549,0.544438 0.1128975,0.178258 0.2385122,0.348341 0.3756351,0.508737 0.021855,0.02555 0.044105,0.05076 0.066357,0.07567 0.1196845,0.134269 0.2467821,0.261381 0.3810679,0.381067 0.1365289,0.121694 0.2793121,0.236157 0.4280223,0.342651 0.7467099,0.516317 1.5899148,0.877225 2.4788816,1.061325 1.0202564,0.217498 2.068175,0.274273 3.1059751,0.168415 0.4649774,-0.04435 0.9267357,-0.115768 1.3834083,-0.213817 0.6149629,-0.131429 1.2196089,-0.30823 1.8083269,-0.529305 0.298818,-0.111937 0.592882,-0.234747 0.88282,-0.368262 0.682297,-0.313184 1.334272,-0.688802 1.947249,-1.122249 0.207822,-0.14782 0.410588,-0.302282 0.608079,-0.463335 0.09471,-0.07749 0.187107,-0.156075 0.277846,-0.235548 0.141203,-0.12372 0.279105,-0.251092 0.413276,-0.38262 l 0.07528,-0.07412 c 0.156167,-0.156162 0.306796,-0.31792 0.451696,-0.484675 0.141203,-0.162523 0.27638,-0.330201 0.405127,-0.502916 0.573418,-0.746929 0.980814,-1.607482 1.19559,-2.5242843 C 17.602634,7.5895582 17.541396,6.6840143 17.228132,5.8519901 17.139023,5.6261872 17.030379,5.4086119 16.902944,5.2020016 16.730487,4.9247796 16.528256,4.667 16.29991,4.4336569 16.220437,4.3527949 16.132703,4.2840764 16.048064,4.2089743 15.956868,4.127713 15.861535,4.0537438 15.765173,3.9796351 15.565934,3.8266016 15.356891,3.6872829 15.138856,3.5624783 14.511873,3.2110182 13.835005,2.9563137 13.131847,2.8073275 12.428345,2.6580821 11.711404,2.585908 10.993676,2.591182 Z m 2.304645,1.3449911 h 0.0081 c 0.05961,0 0.09365,0.00955 0.112924,0.032596 0.02344,0.028014 0.02638,0.077192 0.01009,0.1695791 -0.02265,0.1275544 -0.911521,4.8326675 -0.920462,4.8801526 0.0054,-0.00934 0.268791,-0.4502627 0.547543,-0.9169688 0.317893,-0.5338608 0.648312,-1.0860606 0.670167,-1.123413 0.01639,-0.03463 0.04209,-0.063943 0.07412,-0.084983 0.03205,-0.021021 0.06919,-0.032877 0.107491,-0.034149 L 14.41936,6.80854 14.76201,6.774003 c 0.02523,-0.00219 0.04101,-0.00388 0.05472,-0.00388 0.01272,-9.339e-4 0.02554,0.00149 0.03686,0.00737 0.0063,0.00399 0.01127,0.00972 0.01475,0.016298 0.0035,0.0066 0.0053,0.013892 0.005,0.021343 -5.76e-4,0.020067 -0.007,0.039598 -0.01824,0.056268 -0.05047,0.08146 -1.309598,2.1202246 -1.32132,2.1408874 l 0.09313,0.2646522 c 0.194908,0.5547225 0.600393,1.7094444 0.622049,1.7726254 0.01411,0.04133 0.01576,0.06653 0.0054,0.08382 -0.01033,0.01729 -0.03739,0.03044 -0.08964,0.03958 -0.05225,0.0091 -0.616933,0.09927 -0.851776,0.135431 -0.01581,0.0027 -0.03206,0.0044 -0.04812,0.0047 -0.05662,0 -0.0755,-0.02528 -0.09934,-0.08925 -0.0308,-0.08265 -0.696586,-1.9497176 -0.70354,-1.9685925 l -0.418321,2.1618425 c -0.01848,0.09557 -0.05393,0.100878 -0.112147,0.109819 l -0.0097,0.0019 c -0.246764,0.03974 -0.741439,0.117974 -0.846343,0.134266 -0.0358,0.0062 -0.07197,0.0099 -0.108267,0.01125 l 0.0012,3.97e-4 c -0.0091,0.0013 -0.01844,4.37e-4 -0.02716,-0.0023 -0.0087,-0.0027 -0.01661,-0.0073 -0.02328,-0.01358 -0.01987,-0.02325 -0.01129,-0.07571 0.0066,-0.173459 0.0087,-0.04888 0.218567,-1.178903 0.462947,-2.487031 v -0.00272 c 0.389809,-2.0973126 0.876325,-4.7094135 0.888246,-4.776171 0.02662,-0.1513963 0.07257,-0.1845021 0.188206,-0.2017875 0.08623,-0.014305 0.698216,-0.079306 0.834313,-0.081491 z M 6.9001062,4.808516 c 0.059605,0 0.097025,0.053871 0.1047741,0.1478482 0.032187,0.3858421 0.3154747,4.1521491 0.4815735,6.3632908 0.030399,0.407498 0.052738,0.702279 0.054327,0.722942 0.011126,0.142058 -0.00275,0.180625 -0.1587135,0.206056 -0.089209,0.0147 -0.7026677,0.112194 -0.8475075,0.135043 -0.016669,0.0029 -0.033539,0.0041 -0.050447,0.0043 -0.079473,0 -0.084577,-0.04252 -0.085372,-0.10749 -0.00159,-0.126164 -0.00921,-0.684371 -0.013582,-1.022132 l -0.00195,-0.145519 v -0.0093 l -1.5615207,0.241721 c 0,0.0026 -0.5519509,1.290748 -0.5708258,1.336842 -0.025233,0.0596 -0.054452,0.07402 -0.1319378,0.08654 -0.2384195,0.03815 -1.0183129,0.161511 -1.1067269,0.174624 -0.020723,0.003 -0.041535,0.0043 -0.062476,0.0043 -0.036955,0 -0.059499,-0.0083 -0.070626,-0.02522 -0.013908,-0.02185 -0.00743,-0.05962 0.019791,-0.115251 0.027219,-0.05563 3.5603789,-7.2957361 3.8421111,-7.8689361 0.012855,-0.033617 0.034601,-0.063418 0.062476,-0.086148 0.027895,-0.022729 0.061121,-0.03766 0.096625,-0.043462 z m 3.1249898,2.3966144 c 0.239035,0.00169 0.476012,0.045078 0.700047,0.1284456 0.01862,0.00441 0.03603,0.013103 0.05083,0.025223 0.0148,0.012139 0.02653,0.027241 0.03454,0.044626 0.008,0.017385 0.01206,0.036358 0.01164,0.055492 -3.97e-4,0.019133 -0.0052,0.038076 -0.01397,0.055103 -0.01291,0.037352 -0.133167,0.3776161 -0.204892,0.5828555 v 0.00272 l -0.05045,0.1466841 v 0.00311 C 10.396901,8.1274894 10.21786,8.0384874 10.026648,7.9874457 H 9.983188 C 9.916728,7.9834357 9.850157,7.9952757 9.7891613,8.0219827 9.7281653,8.0486857 9.6745484,8.0891687 9.632388,8.1407268 9.5673,8.2115768 9.5246154,8.300548 9.5101513,8.3956775 c -0.014484,0.095129 6.59e-5,0.1923749 0.041134,0.279398 0.059605,0.1068913 0.1190799,0.190907 0.6511527,0.6717194 0.140707,0.1205212 0.256458,0.2674741 0.340322,0.4326791 0.08386,0.1652047 0.133991,0.345345 0.148236,0.53008 0.02046,0.282448 -0.03712,0.56512 -0.166863,0.816851 -0.113011,0.207068 -0.2664,0.389304 -0.450917,0.536289 -0.18847,0.155191 -0.4115992,0.262993 -0.6503763,0.313935 -0.2105641,0.0418 -0.4244462,0.06289 -0.6391231,0.06364 l -7.748e-4,-3.98e-4 C 8.5439041,12.045733 8.305764,12.0048 8.082504,11.919188 7.9189881,11.851636 7.8964002,11.801008 7.9474617,11.619611 c 0.036955,-0.129938 0.2320557,-0.804728 0.2320557,-0.808702 0.029147,0.05211 0.066597,0.09895 0.1109829,0.138923 0.1146203,0.103971 0.255911,0.174611 0.4078437,0.204116 0.067751,0.01476 0.1367156,0.02221 0.206056,0.02251 0.1149779,0.007 0.2296913,-0.01769 0.3313972,-0.07179 0.1016858,-0.05412 0.1864684,-0.13547 0.2448613,-0.234772 0.055611,-0.130634 0.058665,-0.27774 0.00854,-0.41056 C 9.3884835,10.198105 9.2195355,9.9686249 9.0002493,9.7945984 8.7659425,9.6011807 8.5855834,9.3507292 8.4759898,9.0673875 8.3730126,8.6965261 8.4127095,8.3007121 8.5877491,7.9579444 8.7150848,7.7400489 8.8955038,7.5579128 9.1120085,7.4282522 9.3285331,7.2985919 9.5742255,7.2257334 9.8264137,7.2163754 9.892377,7.2089447 9.958717,7.2051022 10.025097,7.205122 Z M 6.3727423,7.6556599 5.2365236,10.311494 6.3836077,10.132601 Z"/>
  </symbol>

  <symbol id="yahoo">
    <path fill="currentColor" d="M 0.17900002002716073 4.826000213623047 L 3.6059999465942383 4.826000213623047 L 5.687000274658203 10.145999908447266 L 7.795000076293945 4.8309998512268075 L 11.140999794006348 4.8309998512268075 L 6.002999782562256 17.200000762939453 L 2.6470000743865967 17.200000762939453 L 4.034999847412109 13.92199993133545 L 0.17900002002716073 4.826000213623047 Z M 14.430999755859375 8.982000350952148 L 10.678000450134277 8.982000350952148 L 14.060999870300293 0.8149999976158147 L 17.815000534057617 0.8149999976158147 L 14.430999755859375 8.982000350952148 Z M 13.696 11.914 C 13.696 13.071036550895512 12.758036550895511 14.009 11.600999999999999 14.009 C 10.443963449104487 14.009 9.506 13.071036550895512 9.506 11.914 C 9.506 10.756963449104488 10.443963449104487 9.819 11.600999999999999 9.819 C 12.758036550895511 9.819 13.696 10.756963449104488 13.696 11.914 Z"/>
  </symbol>

  <symbol id="yandex">
    <path fill="currentColor" fill-rule="evenodd" clip-rule="evenodd" d="M15.9653 1.9109L9.33977 8.38973V16.4461C9.33977 16.6039 8.70884 16.7052 7.98771 16.7165C7.30039 16.7052 6.64666 16.6039 6.64666 16.4461V8.38973L0.0211679 1.9109C-0.091508 1.80949 0.257975 1.30247 0.776284 0.784157C1.29459 0.25458 1.81263 -0.0834566 1.90277 0.0179518L7.97602 5.95598L14.0493 0.0179518C14.1619 -0.0834566 14.6691 0.25458 15.1874 0.784157C15.7058 1.30247 16.0667 1.80949 15.9653 1.9109Z"/>
  </symbol>

  <symbol id="baidu">
    <path fill="currentColor" d="M 8.386 10.194 L 8.386 16.198 L 5.903 16.198 C 4.83 15.983 4.403 15.251 4.349 15.125 C 4.296 14.999 3.992 14.41 4.154 13.409 C 4.617 11.91 5.939 11.8 5.939 11.8 L 7.262 11.8 L 7.262 10.177 L 8.386 10.194 Z M 7.242 12.767 L 6.171 12.767 C 5.689 12.911 5.455 13.284 5.404 13.446 C 5.349 13.608 5.224 14.018 5.333 14.374 C 5.545 15.176 6.242 15.212 6.242 15.212 L 7.242 15.212 L 7.242 12.767 Z M 10.156 11.927 L 10.156 14.767 C 10.227 15.07 10.603 15.124 10.603 15.124 L 11.78 15.124 L 11.78 11.946 L 13.013 11.946 L 13.013 16.18 L 10.156 16.18 C 9.046 15.893 8.995 15.107 8.995 15.107 L 8.995 11.946 L 10.156 11.927 Z M 3.376 9.475 C 5.286 9.064 5.025 6.779 4.969 6.279 C 4.875 5.509 3.97 4.164 2.742 4.272 C 1.195 4.409 0.969 6.644 0.969 6.644 C 0.76 7.678 1.469 9.886 3.376 9.475 Z M 6.923 5.644 C 7.978 5.644 8.83 4.428 8.83 2.927 C 8.83 1.426 7.978 0.213 6.923 0.213 C 5.868 0.213 5.014 1.426 5.014 2.927 C 5.014 4.428 5.868 5.644 6.923 5.644 Z M 11.469 5.822 C 12.881 6.007 13.785 4.501 13.966 3.36 C 14.151 2.221 13.239 0.896 12.242 0.668 C 11.241 0.438 9.99 2.041 9.878 3.087 C 9.741 4.366 10.059 5.642 11.469 5.822 Z M 17.059 7.739 C 17.059 7.193 16.607 5.548 14.925 5.548 C 13.239 5.548 13.016 7.101 13.016 8.198 C 13.016 9.244 13.104 10.705 15.197 10.659 C 17.289 10.613 17.059 8.289 17.059 7.739 Z M 14.925 12.53 C 14.925 12.53 12.743 10.842 11.469 9.017 C 9.74 6.326 7.287 7.422 6.466 8.788 C 5.648 10.158 4.377 11.023 4.195 11.253 C 4.012 11.478 1.56 12.803 2.104 15.222 C 2.649 17.639 4.561 17.594 4.561 17.594 C 4.561 17.594 5.97 17.731 7.604 17.366 C 9.242 17.001 10.651 17.455 10.651 17.455 C 10.651 17.455 14.471 18.736 15.515 16.272 C 16.56 13.809 14.925 12.53 14.925 12.53 Z"/>
  </symbol>

  <symbol id="ecosia">
    <path fill="currentColor" d="M 3.7708244,9.0000003 V 17.560088 H 14.229176 V 12.0802 H 7.7464302 V 10.038672 H 11.97275 V 7.9613285 H 7.7464302 V 5.8839851 H 14.229176 V 0.43991237 H 3.7708244 Z"/>
  </symbol>

  <symbol id="startpage">
    <path fill="currentColor" d="m 7.7993831,0.39646339 a 6.1763763,6.3295031 0 0 0 -6.1600298,6.34063301 6.1763763,6.3295031 0 0 0 0.00244,0.026846 C 2.4436441,6.6152091 3.5511274,6.4809716 4.3459591,6.4686322 A 3.4979646,3.6125767 0 0 1 7.8140265,3.1592026 3.4979646,3.6125767 0 0 1 11.269891,6.1757624 h 2.684641 A 6.1763763,6.3295031 0 0 0 7.7993831,0.39646339 Z M 11.203996,7.67428 A 3.4979646,3.6125767 0 0 1 7.8262295,10.383326 3.4979646,3.6125767 0 0 1 4.6632348,8.3137125 C 3.7921352,8.3292034 2.7175568,8.4579453 1.9273421,8.6114636 a 6.1763763,6.3295031 0 0 0 5.8940062,4.4443014 6.1763763,6.3295031 0 0 0 2.5211227,-0.558894 l 3.558368,4.576091 a 1.374536,1.374536 0 0 0 1.928061,0.241619 1.374536,1.374536 0 0 0 0.241617,-1.930501 l -3.551048,-4.56633 a 6.1763763,6.3295031 0 0 0 1.400895,-3.14347 z"/>
  </symbol>

  <symbol id="qwant">
    <path fill="currentColor" d="m 8.5662992,0.71478185 c 3.7859558,0 6.8660658,3.08005865 6.8660658,6.86601415 0,3.717061 -2.969165,6.753218 -6.6602584,6.862475 l -0.11207,0.0024 H 15.40911 l 0.890656,2.839519 H 9.4557776 L 8.5654799,14.446862 c -3.7855457,-4.61e-4 -6.865246,-3.080366 -6.865246,-6.866066 0,-3.7859555 3.08011,-6.86601415 6.8660653,-6.86601415 z m 0,2.32268305 c -2.50524,0 -4.5433822,2.0380911 -4.5433822,4.5433311 0,2.50524 2.0381422,4.543383 4.5433822,4.543383 2.5052408,0 4.5434338,-2.038143 4.5434338,-4.543383 0,-2.50524 -2.038193,-4.5433311 -4.5434338,-4.5433311 z"/>
  </symbol>
</svg>
