<svg xmlns="http://www.w3.org/2000/svg" width="18" height="18" viewBox="0 0 18 18" fill="none">
  <symbol id="google">
    <path d="M17.4881 7.37775C17.5931 7.98183 17.6454 8.59387 17.6445 9.207C17.6445 11.9452 16.6658 14.2605 14.9625 15.8276H14.9648C13.4753 17.2035 11.4278 18 9 18C6.61305 18 4.32387 17.0518 2.63604 15.364C0.948212 13.6761 0 11.3869 0 9C0 6.61305 0.948212 4.32386 2.63604 2.63604C4.32387 0.94821 6.61305 -1.22038e-06 9 -1.22038e-06C11.2342 -0.0261669 13.3918 0.813186 15.021 2.34225L12.4515 4.91175C11.5227 4.02635 10.2831 3.54149 9 3.56175C6.65213 3.56175 4.6575 5.14575 3.9465 7.27875C3.56952 8.39644 3.56952 9.60693 3.9465 10.7246H3.94988C4.66425 12.8542 6.6555 14.4382 9.00338 14.4382C10.2161 14.4382 11.2579 14.1277 12.0656 13.5787H12.0623C12.5313 13.268 12.9325 12.8655 13.2416 12.3955C13.5508 11.9254 13.7616 11.3976 13.8611 10.8439H9V7.37887L17.4881 7.37775Z" fill="currentColor"/>
  </symbol>

  <symbol id="duck">
    <path d="M9 0C4.02975 0 0 4.02975 0 9C0 13.9703 4.02975 18 9 18C13.9703 18 18 13.9703 18 9C18 4.02975 13.9703 0 9 0ZM9 17.25C4.44375 17.25 0.75 13.5555 0.75 9C0.75 4.4445 4.4445 0.75 9 0.75C13.5555 0.75 17.25 4.44375 17.25 9C17.25 13.5563 13.5563 17.25 9 17.25ZM16.6643 9C16.6643 12.6038 14.1765 15.6248 10.8248 16.4438C10.6223 16.053 10.4273 15.681 10.263 15.3653C10.7468 15.552 11.7105 15.9037 11.919 15.8265C12.201 15.7185 12.1305 13.4648 11.814 13.3928C11.5605 13.3365 10.59 14.0205 10.2083 14.2995L10.2338 14.4165C10.2923 14.7143 10.3418 15.1613 10.2563 15.3518C10.2555 15.3548 10.2547 15.3593 10.2532 15.3615C10.2422 15.3875 10.2247 15.4103 10.2023 15.4275C9.98925 15.5685 9.3915 15.6405 9.075 15.5685C9.05869 15.5645 9.04266 15.5595 9.027 15.5535C8.5065 15.8505 7.5195 16.3853 7.3395 16.2818C7.09275 16.1408 7.05675 14.2747 7.09275 13.8157C7.119 13.4707 8.3325 14.0303 8.92425 14.325C9.05475 14.2028 9.37575 14.121 9.65925 14.0925C9.23175 13.0508 8.91675 11.8598 9.1095 11.0138C9.1095 11.0153 9.111 11.0153 9.111 11.0153C9.378 11.2013 11.1585 11.8028 12.0435 11.7855C12.9285 11.7675 14.379 11.2283 14.2208 10.7933C14.0618 10.3583 12.6195 11.1757 11.1143 11.0362C9.99975 10.9327 9.80325 10.4333 10.0493 10.0688C10.3598 9.6105 10.9253 10.1558 11.8575 9.87675C12.7913 9.5985 14.0978 9.1005 14.5815 8.829C15.702 8.20425 14.1128 7.94625 13.7378 8.11875C13.3823 8.28375 12.1455 8.5965 11.571 8.73375C11.892 7.59675 11.1187 5.622 10.2532 4.75875C9.97125 4.47675 9.54 4.29975 9.051 4.20675C8.8635 3.94875 8.5605 3.7035 8.13225 3.474C7.30432 3.04084 6.35847 2.88719 5.436 3.036L5.418 3.039L5.3925 3.042L5.3955 3.0435C5.2845 3.0645 5.21775 3.1035 5.12775 3.117C5.23875 3.129 5.6565 3.324 5.9205 3.4305C5.79 3.4815 5.6115 3.5115 5.4735 3.5685C5.42091 3.5759 5.36949 3.59002 5.3205 3.6105C5.19075 3.6705 5.09325 3.89175 5.0955 3.99675C5.7255 3.93225 6.657 3.97725 7.33875 4.18125C6.85575 4.24875 6.4125 4.37475 6.093 4.54275C6.081 4.54875 6.0705 4.55625 6.057 4.56375C6.0165 4.57875 5.9775 4.59525 5.943 4.61325C4.91775 5.15325 4.46475 6.417 4.73475 7.93125C4.977 9.29925 5.9835 13.9973 6.45225 16.2293C3.4725 15.1793 1.33575 12.3398 1.33575 9C1.33575 4.767 4.767 1.33575 9 1.33575C13.233 1.33575 16.6643 4.767 16.6643 9ZM6.82125 7.18575C6.67048 7.18575 6.52587 7.24565 6.41926 7.35226C6.31265 7.45887 6.25275 7.60347 6.25275 7.75425C6.25275 7.90503 6.31265 8.04963 6.41926 8.15624C6.52587 8.26285 6.67048 8.32275 6.82125 8.32275C6.97203 8.32275 7.11663 8.26285 7.22324 8.15624C7.32986 8.04963 7.38975 7.90503 7.38975 7.75425C7.38975 7.60347 7.32986 7.45887 7.22324 7.35226C7.11663 7.24565 6.97203 7.18575 6.82125 7.18575ZM10.6177 6.93C10.5522 6.92743 10.4867 6.93812 10.4254 6.96144C10.3641 6.98476 10.3081 7.02023 10.2607 7.06572C10.2134 7.1112 10.1758 7.16578 10.1501 7.22616C10.1244 7.28654 10.1111 7.3515 10.1111 7.41713C10.1111 7.48275 10.1244 7.54771 10.1501 7.60809C10.1758 7.66847 10.2134 7.72305 10.2607 7.76853C10.3081 7.81402 10.3641 7.84949 10.4254 7.87281C10.4867 7.89613 10.5522 7.90682 10.6177 7.90425C10.747 7.90425 10.871 7.85289 10.9625 7.76146C11.0539 7.67004 11.1053 7.54604 11.1053 7.41675C11.1053 7.28746 11.0539 7.16346 10.9625 7.07204C10.871 6.98061 10.747 6.93 10.6177 6.93ZM6.98475 6.1095C6.98475 6.1095 6.5565 5.9145 6.141 6.177C5.7255 6.438 5.7405 6.705 5.7405 6.705C5.7405 6.705 5.52 6.213 6.108 5.9715C6.6975 5.7315 6.9855 6.1095 6.9855 6.1095H6.98475ZM10.9117 6.0705C10.9117 6.0705 10.6043 5.895 10.3643 5.898C9.87375 5.904 9.741 6.12 9.741 6.12C9.741 6.12 9.8235 5.604 10.4498 5.7075C10.5505 5.72591 10.6452 5.76859 10.7257 5.83184C10.8062 5.89509 10.87 5.97701 10.9117 6.0705Z" fill="currentColor"/>
  </symbol>

  <symbol id="bing">
    <path d="M2.7556 0.0888824L6.33903 1.34951V13.9632L11.3865 11.0494L8.91181 9.88833L7.35059 6.00252L15.3034 8.79649V12.8585L6.34103 18.0278L2.75555 16.0334L2.7556 0.0888824Z" fill="currentColor"/>
  </symbol>
</svg>